<?xml version="1.0" encoding="utf-8"?>
<!-- Generator: Adobe Illustrator 22.0.1, SVG Export Plug-In . SVG Version: 6.00 Build 0)  -->
<svg version="1.1" id="Livello_1" xmlns="http://www.w3.org/2000/svg" xmlns:xlink="http://www.w3.org/1999/xlink" x="0px" y="0px"
	 width="200px" height="200px" viewBox="0 0 200 200" style="enable-background:new 0 0 200 200;" xml:space="preserve">
<style type="text/css">
	.st0{fill:#333333;}
	.st1{fill:#FFFFFF;}
	.st2{fill:none;}
</style>
<g id="Livello_5">
	<g>
		<path d="M141.6,85.9l-57.2-33l-14.6-8.4c-5.7-3.3-12.5,2-10.8,8.3l12.7,47.4L59,147.6c-1.7,6.4,5.1,11.6,10.8,8.3l14.6-8.4
			l57.2-33C152.6,108.1,152.6,92.3,141.6,85.9z"/>
		<path class="st0" d="M141.6,85.9l-57.2-33l-14.6-8.5c-5.7-3.3-12.5,2-10.8,8.3l12.8,47.6l9.4,35.3c0.2,0.5,0.3,1,0.4,1.5
			c0.2,1,0.3,2,0.3,3.1c0,5.1-2.5,9.8-6.5,12.5l8.9-5.2h0.1l57.2-33C152.6,108.1,152.6,92.3,141.6,85.9z"/>
		<polygon class="st1" points="74.9,76.2 71.9,64.9 82.5,64.9 85.5,76.2 		"/>
		<polygon class="st1" points="78,87.7 88.6,87.7 91.6,99 81,99 		"/>
		<polygon class="st1" points="97.7,121.6 87.1,121.6 87,121.4 84,110.3 94.6,110.3 		"/>
	</g>
</g>
<g id="Livello_1_copia">
	<g id="bg_copia_4_">
		<g>
			<path class="st2" d="M162.7,200H37.3C16.7,200,0,183.3,0,162.7V37.3C0,16.7,16.7,0,37.3,0h125.3C183.3,0,200,16.7,200,37.3v125.3
				C200,183.3,183.3,200,162.7,200z"/>
		</g>
	</g>
</g>
</svg>
