<?xml version="1.0" encoding="utf-8"?>
<!-- Generator: Adobe Illustrator 22.0.1, SVG Export Plug-In . SVG Version: 6.00 Build 0)  -->
<svg version="1.1" id="Livello_2" xmlns="http://www.w3.org/2000/svg" xmlns:xlink="http://www.w3.org/1999/xlink" x="0px" y="0px"
	 width="200px" height="200px" viewBox="0 0 200 200" style="enable-background:new 0 0 200 200;" xml:space="preserve">
<style type="text/css">
	.st0{fill:none;}
	.st1{fill:#CCCCCC;}
	.st2{fill:#FFFFFF;}
</style>
<g id="bg_copia_9_">
	<g>
		<path class="st0" d="M161.7,200H36.3C15.7,200-1,183.3-1,162.7V37.3C-1,16.7,15.7,0,36.3,0h125.3C182.3,0,199,16.7,199,37.3v125.3
			C199,183.3,182.3,200,161.7,200z"/>
	</g>
</g>
<g>
	<path class="st1" d="M140.5,85.9l-57.2-33l-14.6-8.4c-5.7-3.3-12.5,2-10.8,8.3l12.7,47.4l-12.7,47.4c-1.7,6.4,5.1,11.6,10.8,8.3
		l14.6-8.4l57.2-33C151.5,108.1,151.5,92.3,140.5,85.9z"/>
	<path class="st2" d="M140.5,85.9l-57.2-33l-14.6-8.5c-5.7-3.3-12.5,2-10.8,8.3l12.8,47.6l9.4,35.3c0.2,0.5,0.3,1,0.4,1.5
		c0.2,1,0.3,2,0.3,3.1c0,5.1-2.5,9.8-6.5,12.5l8.9-5.2h0.1l57.2-33C151.5,108.1,151.5,92.3,140.5,85.9z"/>
	<polygon points="73.9,76.2 70.9,64.9 81.5,64.9 84.5,76.2 	"/>
	<polygon points="76.9,87.7 87.5,87.7 90.6,99 80,99 	"/>
	<polygon points="96.7,121.6 86.1,121.6 86,121.4 83,110.3 93.6,110.3"/>
</g>
</svg>
